<svg width="73" height="64" viewBox="0 0 73 64" fill="none" xmlns="http://www.w3.org/2000/svg">
<path d="M66 37.75L71.875 11.75C72.25 9.875 70.875 8 68.875 8H19.875L18.75 2.5C18.375 1.125 17.125 0 15.75 0H3C1.25 0 0 1.375 0 3V5C0 6.75 1.25 8 3 8H11.625L20.5 51C18.375 52.25 17 54.5 17 57C17 60.875 20.125 64 24 64C27.75 64 31 60.875 31 57C31 55.125 30.125 53.375 28.875 52H55C53.75 53.375 53 55.125 53 57C53 60.875 56.125 64 60 64C63.75 64 67 60.875 67 57C67 54.25 65.375 51.875 63 50.75L63.625 47.75C64.125 45.875 62.625 44 60.75 44H27.25L26.375 40H63C64.375 40 65.625 39.125 66 37.75Z" fill="white"/>
</svg>
